<mxfile host="app.diagrams.net" modified="2021-05-04T07:28:33.386Z" agent="5.0 (Windows NT 10.0; Win64; x64) AppleWebKit/537.36 (KHTML, like Gecko) Chrome/90.0.4430.93 Safari/537.36 Edg/90.0.818.51" etag="Y-f1fOiqxLZNmflgMrLZ" version="14.6.9" type="github">
  <diagram id="9LxXNfE6AS55K3hzmVKN" name="Page-1">
    <mxGraphModel dx="154" dy="526" grid="1" gridSize="10" guides="1" tooltips="1" connect="1" arrows="1" fold="1" page="1" pageScale="1" pageWidth="827" pageHeight="1169" math="0" shadow="0">
      <root>
        <mxCell id="0" />
        <mxCell id="1" parent="0" />
        <mxCell id="PFRiYje99SP-fdfWf0Iw-36" value="" style="ellipse;html=1;shape=startState;fillColor=#000000;strokeColor=#ff0000;" vertex="1" parent="1">
          <mxGeometry x="1005" y="40" width="30" height="30" as="geometry" />
        </mxCell>
        <mxCell id="PFRiYje99SP-fdfWf0Iw-37" value="" style="edgeStyle=orthogonalEdgeStyle;html=1;verticalAlign=bottom;endArrow=open;endSize=8;strokeColor=#ff0000;entryX=0.5;entryY=0;entryDx=0;entryDy=0;" edge="1" parent="1" target="PFRiYje99SP-fdfWf0Iw-38">
          <mxGeometry relative="1" as="geometry">
            <mxPoint x="1020" y="8" as="targetPoint" />
            <mxPoint x="1020" y="70" as="sourcePoint" />
          </mxGeometry>
        </mxCell>
        <mxCell id="PFRiYje99SP-fdfWf0Iw-38" value="Edit Goals" style="rounded=1;whiteSpace=wrap;html=1;arcSize=40;fontColor=#000000;fillColor=#ffffc0;strokeColor=#ff0000;" vertex="1" parent="1">
          <mxGeometry x="960" y="88" width="120" height="40" as="geometry" />
        </mxCell>
        <mxCell id="PFRiYje99SP-fdfWf0Iw-40" value="" style="ellipse;html=1;shape=endState;fillColor=#000000;strokeColor=#ff0000;" vertex="1" parent="1">
          <mxGeometry x="1185" y="650" width="30" height="30" as="geometry" />
        </mxCell>
        <mxCell id="PFRiYje99SP-fdfWf0Iw-41" value="Edit Field" style="rhombus;whiteSpace=wrap;html=1;fillColor=#ffffc0;strokeColor=#ff0000;" vertex="1" parent="1">
          <mxGeometry x="980" y="220" width="80" height="40" as="geometry" />
        </mxCell>
        <mxCell id="PFRiYje99SP-fdfWf0Iw-65" value="" style="edgeStyle=orthogonalEdgeStyle;html=1;verticalAlign=bottom;endArrow=open;endSize=8;strokeColor=#ff0000;" edge="1" parent="1">
          <mxGeometry relative="1" as="geometry">
            <mxPoint x="1215" y="1140" as="targetPoint" />
            <mxPoint x="1215" y="1140" as="sourcePoint" />
          </mxGeometry>
        </mxCell>
        <mxCell id="PFRiYje99SP-fdfWf0Iw-66" value="" style="endArrow=none;dashed=1;html=1;" edge="1" parent="1">
          <mxGeometry width="50" height="50" relative="1" as="geometry">
            <mxPoint x="1100" y="1160" as="sourcePoint" />
            <mxPoint x="1100" y="10" as="targetPoint" />
          </mxGeometry>
        </mxCell>
        <mxCell id="PFRiYje99SP-fdfWf0Iw-67" value="" style="endArrow=none;dashed=1;html=1;" edge="1" parent="1">
          <mxGeometry width="50" height="50" relative="1" as="geometry">
            <mxPoint x="1309.9999999999998" y="1160" as="sourcePoint" />
            <mxPoint x="1309.9999999999998" y="10" as="targetPoint" />
          </mxGeometry>
        </mxCell>
        <mxCell id="PFRiYje99SP-fdfWf0Iw-68" value="User" style="text;html=1;strokeColor=none;fillColor=none;align=center;verticalAlign=middle;whiteSpace=wrap;rounded=0;" vertex="1" parent="1">
          <mxGeometry x="990" y="10" width="40" height="20" as="geometry" />
        </mxCell>
        <mxCell id="PFRiYje99SP-fdfWf0Iw-69" value="UI" style="text;html=1;strokeColor=none;fillColor=none;align=center;verticalAlign=middle;whiteSpace=wrap;rounded=0;" vertex="1" parent="1">
          <mxGeometry x="1195" y="10" width="40" height="20" as="geometry" />
        </mxCell>
        <mxCell id="PFRiYje99SP-fdfWf0Iw-70" value="System" style="text;html=1;strokeColor=none;fillColor=none;align=center;verticalAlign=middle;whiteSpace=wrap;rounded=0;" vertex="1" parent="1">
          <mxGeometry x="1390" y="10" width="40" height="20" as="geometry" />
        </mxCell>
        <mxCell id="PFRiYje99SP-fdfWf0Iw-82" value="" style="edgeStyle=orthogonalEdgeStyle;html=1;verticalAlign=bottom;endArrow=open;endSize=8;strokeColor=#ff0000;entryX=0.5;entryY=0;entryDx=0;entryDy=0;exitX=0.5;exitY=1;exitDx=0;exitDy=0;" edge="1" parent="1" source="PFRiYje99SP-fdfWf0Iw-38" target="PFRiYje99SP-fdfWf0Iw-41">
          <mxGeometry relative="1" as="geometry">
            <mxPoint x="1030" y="98" as="targetPoint" />
            <mxPoint x="1030" y="80" as="sourcePoint" />
          </mxGeometry>
        </mxCell>
        <mxCell id="PFRiYje99SP-fdfWf0Iw-83" value="" style="edgeStyle=orthogonalEdgeStyle;html=1;verticalAlign=bottom;endArrow=open;endSize=8;strokeColor=#ff0000;exitX=0.5;exitY=1;exitDx=0;exitDy=0;entryX=0.421;entryY=-0.055;entryDx=0;entryDy=0;entryPerimeter=0;" edge="1" parent="1" target="PFRiYje99SP-fdfWf0Iw-88">
          <mxGeometry relative="1" as="geometry">
            <mxPoint x="1020" y="320" as="targetPoint" />
            <mxPoint x="1019.66" y="260" as="sourcePoint" />
            <Array as="points">
              <mxPoint x="1020" y="280" />
              <mxPoint x="1020" y="280" />
            </Array>
          </mxGeometry>
        </mxCell>
        <mxCell id="PFRiYje99SP-fdfWf0Iw-84" value="Yes" style="text;html=1;align=center;verticalAlign=middle;resizable=0;points=[];autosize=1;strokeColor=none;" vertex="1" parent="1">
          <mxGeometry x="1010" y="270" width="40" height="20" as="geometry" />
        </mxCell>
        <mxCell id="PFRiYje99SP-fdfWf0Iw-85" value="Close screen" style="rounded=1;whiteSpace=wrap;html=1;arcSize=40;fontColor=#000000;fillColor=#ffffc0;strokeColor=#ff0000;" vertex="1" parent="1">
          <mxGeometry x="970" y="390" width="120" height="40" as="geometry" />
        </mxCell>
        <mxCell id="PFRiYje99SP-fdfWf0Iw-87" value="" style="edgeStyle=orthogonalEdgeStyle;html=1;verticalAlign=bottom;endArrow=open;endSize=8;strokeColor=#ff0000;exitX=0;exitY=0.5;exitDx=0;exitDy=0;entryX=0;entryY=0.5;entryDx=0;entryDy=0;" edge="1" parent="1" source="PFRiYje99SP-fdfWf0Iw-41" target="PFRiYje99SP-fdfWf0Iw-85">
          <mxGeometry relative="1" as="geometry">
            <mxPoint x="940" y="410" as="targetPoint" />
            <mxPoint x="969.9999999999999" y="230" as="sourcePoint" />
            <Array as="points">
              <mxPoint x="940" y="240" />
              <mxPoint x="940" y="410" />
            </Array>
          </mxGeometry>
        </mxCell>
        <mxCell id="PFRiYje99SP-fdfWf0Iw-90" value="No" style="edgeLabel;html=1;align=center;verticalAlign=middle;resizable=0;points=[];" vertex="1" connectable="0" parent="PFRiYje99SP-fdfWf0Iw-87">
          <mxGeometry x="-0.0443" y="2" relative="1" as="geometry">
            <mxPoint as="offset" />
          </mxGeometry>
        </mxCell>
        <mxCell id="PFRiYje99SP-fdfWf0Iw-88" value="Edit seletcted field" style="rounded=1;whiteSpace=wrap;html=1;arcSize=40;fontColor=#000000;fillColor=#ffffc0;strokeColor=#ff0000;" vertex="1" parent="1">
          <mxGeometry x="970" y="330" width="120" height="40" as="geometry" />
        </mxCell>
        <mxCell id="PFRiYje99SP-fdfWf0Iw-91" value="" style="edgeStyle=orthogonalEdgeStyle;html=1;verticalAlign=bottom;endArrow=open;endSize=8;strokeColor=#ff0000;exitX=0.5;exitY=1;exitDx=0;exitDy=0;" edge="1" parent="1">
          <mxGeometry relative="1" as="geometry">
            <mxPoint x="1020" y="390" as="targetPoint" />
            <mxPoint x="1019.5699999999998" y="370" as="sourcePoint" />
            <Array as="points">
              <mxPoint x="1019.91" y="390" />
              <mxPoint x="1019.91" y="390" />
            </Array>
          </mxGeometry>
        </mxCell>
        <mxCell id="PFRiYje99SP-fdfWf0Iw-92" value="" style="edgeStyle=orthogonalEdgeStyle;html=1;verticalAlign=bottom;endArrow=open;endSize=8;strokeColor=#ff0000;exitX=1;exitY=0.5;exitDx=0;exitDy=0;" edge="1" parent="1" source="PFRiYje99SP-fdfWf0Iw-85">
          <mxGeometry relative="1" as="geometry">
            <mxPoint x="1370" y="410" as="targetPoint" />
            <mxPoint x="1234.31" y="360" as="sourcePoint" />
            <Array as="points">
              <mxPoint x="1234" y="410" />
            </Array>
          </mxGeometry>
        </mxCell>
        <mxCell id="PFRiYje99SP-fdfWf0Iw-93" value="Calculate Needs based on changed Needs" style="rounded=1;whiteSpace=wrap;html=1;arcSize=40;fontColor=#000000;fillColor=#ffffc0;strokeColor=#ff0000;" vertex="1" parent="1">
          <mxGeometry x="1370" y="390" width="120" height="40" as="geometry" />
        </mxCell>
        <mxCell id="PFRiYje99SP-fdfWf0Iw-94" value="" style="edgeStyle=orthogonalEdgeStyle;html=1;verticalAlign=bottom;endArrow=open;endSize=8;strokeColor=#ff0000;exitX=0.5;exitY=1;exitDx=0;exitDy=0;" edge="1" parent="1" source="PFRiYje99SP-fdfWf0Iw-93">
          <mxGeometry relative="1" as="geometry">
            <mxPoint x="1430" y="480" as="targetPoint" />
            <mxPoint x="1370" y="530.0000000000001" as="sourcePoint" />
            <Array as="points">
              <mxPoint x="1430" y="460" />
              <mxPoint x="1430" y="460" />
            </Array>
          </mxGeometry>
        </mxCell>
        <mxCell id="PFRiYje99SP-fdfWf0Iw-95" value="Save to Storage" style="rounded=1;whiteSpace=wrap;html=1;arcSize=40;fontColor=#000000;fillColor=#ffffc0;strokeColor=#ff0000;" vertex="1" parent="1">
          <mxGeometry x="1370" y="480" width="120" height="40" as="geometry" />
        </mxCell>
        <mxCell id="PFRiYje99SP-fdfWf0Iw-96" value="" style="edgeStyle=orthogonalEdgeStyle;html=1;verticalAlign=bottom;endArrow=open;endSize=8;strokeColor=#ff0000;exitX=0;exitY=0.5;exitDx=0;exitDy=0;" edge="1" parent="1" source="PFRiYje99SP-fdfWf0Iw-95">
          <mxGeometry relative="1" as="geometry">
            <mxPoint x="1260" y="500" as="targetPoint" />
            <mxPoint x="1439.9999999999998" y="440.0000000000001" as="sourcePoint" />
            <Array as="points">
              <mxPoint x="1260" y="500" />
              <mxPoint x="1260" y="500" />
            </Array>
          </mxGeometry>
        </mxCell>
        <mxCell id="PFRiYje99SP-fdfWf0Iw-97" value="Display Seetings Main Page" style="rounded=1;whiteSpace=wrap;html=1;arcSize=40;fontColor=#000000;fillColor=#ffffc0;strokeColor=#ff0000;" vertex="1" parent="1">
          <mxGeometry x="1140" y="480" width="120" height="40" as="geometry" />
        </mxCell>
        <mxCell id="PFRiYje99SP-fdfWf0Iw-98" value="" style="edgeStyle=orthogonalEdgeStyle;html=1;verticalAlign=bottom;endArrow=open;endSize=8;strokeColor=#ff0000;exitX=0.5;exitY=1;exitDx=0;exitDy=0;entryX=0.5;entryY=0;entryDx=0;entryDy=0;" edge="1" parent="1" source="PFRiYje99SP-fdfWf0Iw-97" target="PFRiYje99SP-fdfWf0Iw-40">
          <mxGeometry relative="1" as="geometry">
            <mxPoint x="1269.9999999999998" y="510" as="targetPoint" />
            <mxPoint x="1379.9999999999998" y="510" as="sourcePoint" />
            <Array as="points" />
          </mxGeometry>
        </mxCell>
      </root>
    </mxGraphModel>
  </diagram>
</mxfile>
